<svg xmlns="http://www.w3.org/2000/svg" width="32" height="32" fill="none" viewBox="0 0 32 32">
  <path stroke="" stroke-linecap="round" stroke-linejoin="round" stroke-miterlimit="10" stroke-width="2" d="M11.333 25.333h-.666c-5.334 0-8-1.333-8-8v-6.666c0-5.334 2.666-8 8-8h10.666c5.334 0 8 2.666 8 8v6.666c0 5.334-2.666 8-8 8h-.666c-.414 0-.814.2-1.067.534l-2 2.666c-.88 1.174-2.32 1.174-3.2 0l-2-2.666c-.213-.294-.707-.534-1.067-.534Z"/>
  <path stroke="" stroke-linecap="round" stroke-linejoin="round" stroke-width="2" d="M9.333 10.667h13.334M9.333 17.333h8"/>
</svg>
