<svg xmlns="http://www.w3.org/2000/svg" width="32" height="32" fill="none" viewBox="0 0 32 32">
  <path stroke="" stroke-linecap="round" stroke-linejoin="round" stroke-width="2" d="M12 29.333h8c6.667 0 9.333-2.666 9.333-9.333v-8c0-6.667-2.666-9.333-9.333-9.333h-8c-6.667 0-9.333 2.666-9.333 9.333v8c0 6.667 2.666 9.333 9.333 9.333Z"/>
  <path stroke="" stroke-linecap="round" stroke-linejoin="round" stroke-width="2" d="M12 13.333A2.667 2.667 0 1 0 12 8a2.667 2.667 0 0 0 0 5.333ZM3.56 25.267l6.573-4.414c1.054-.706 2.574-.626 3.52.187l.44.387c1.04.893 2.72.893 3.76 0l5.547-4.76c1.04-.894 2.72-.894 3.76 0l2.173 1.866"/>
</svg>
