<svg xmlns="http://www.w3.org/2000/svg" width="32" height="32" fill="none" viewBox="0 0 32 32">
  <path stroke="#C3C5CD" stroke-linecap="round" stroke-linejoin="round" stroke-width="2" d="M24.187 28.827c-1.174.346-2.56.506-4.187.506h-8c-1.627 0-3.013-.16-4.187-.506.294-3.467 3.854-6.2 8.187-6.2 4.333 0 7.893 2.733 8.187 6.2Z"/>
  <path stroke="#C3C5CD" stroke-linecap="round" stroke-linejoin="round" stroke-width="2" d="M20 2.667h-8c-6.667 0-9.333 2.666-9.333 9.333v8c0 5.04 1.52 7.8 5.146 8.827.294-3.467 3.854-6.2 8.187-6.2 4.333 0 7.893 2.733 8.187 6.2C27.813 27.8 29.333 25.04 29.333 20v-8c0-6.667-2.666-9.333-9.333-9.333Zm-4 16.226a4.78 4.78 0 0 1-4.773-4.786A4.769 4.769 0 0 1 16 9.333a4.769 4.769 0 0 1 4.773 4.774A4.78 4.78 0 0 1 16 18.893Z"/>
  <path stroke="#C3C5CD" stroke-linecap="round" stroke-linejoin="round" stroke-width="2" d="M20.773 14.107A4.78 4.78 0 0 1 16 18.893a4.78 4.78 0 0 1-4.773-4.786A4.769 4.769 0 0 1 16 9.333a4.769 4.769 0 0 1 4.773 4.774Z"/>
</svg>
