<svg xmlns="http://www.w3.org/2000/svg" width="32" height="32" fill="none" viewBox="0 0 32 32">
  <path stroke="#C3C5CD" stroke-linecap="round" stroke-linejoin="round" stroke-width="2" d="M12 29.333h8c6.667 0 9.333-2.666 9.333-9.333v-8c0-6.667-2.666-9.333-9.333-9.333h-8c-6.667 0-9.333 2.666-9.333 9.333v8c0 6.667 2.666 9.333 9.333 9.333Z"/>
  <path stroke="#C3C5CD" stroke-linecap="round" stroke-linejoin="round" stroke-miterlimit="10" stroke-width="2" d="M12.133 16v-1.973c0-2.547 1.8-3.574 4-2.307l1.707.987 1.707.986c2.2 1.267 2.2 3.347 0 4.614l-1.707.986-1.707.987c-2.2 1.267-4 .227-4-2.307V16Z"/>
</svg>
